<svg width="112" height="20" viewBox="0 0 112 20" fill="none" xmlns="http://www.w3.org/2000/svg">
<path d="M2.53748 10.0029C2.53748 4.49374 6.75756 0.579483 12.5053 0.579483C15.8451 0.579483 18.5375 1.79563 20.2981 3.99642L17.0355 6.94747C15.8922 5.57555 14.4989 4.82529 12.764 4.82529C9.78721 4.82529 7.71504 6.89603 7.71504 10.0029C7.71504 13.1097 9.78721 15.1804 12.764 15.1804C14.4989 15.1804 15.8965 14.4302 17.0355 13.0582L20.2981 16.0093C18.5375 18.2129 15.8451 19.4277 12.5053 19.4277C6.75756 19.4277 2.53748 15.5177 2.53748 10.0029Z" fill="white"/>
<path d="M39.2584 1.29831V19.4277H35.0427L27.0398 9.76419V19.4277H22.0151V1.29831H26.2352L34.2381 10.956V1.29831H39.2584Z" fill="white"/>
<path d="M46.103 5.25973V9.24687H54.1059V13.2083H46.103V19.4277H40.9755V1.29831H55.1891V5.25973H46.103Z" fill="white"/>
<path d="M62.4795 5.36262H56.9061V1.29831H73.1405V5.36262H67.6128V19.4277H62.4795V5.36262Z" fill="white"/>
<path d="M74.8575 16.5023C74.8575 14.7417 76.1523 13.6027 77.8086 13.6027C79.4921 13.6027 80.7597 14.746 80.7597 16.5023C80.7597 18.2101 79.4921 19.4277 77.8086 19.4277C76.1523 19.4277 74.8575 18.2101 74.8575 16.5023Z" fill="white"/>
<path d="M82.4767 1.29831H87.6028V19.4277H82.4767V1.29831Z" fill="white"/>
<path d="M89.3198 9.99571C89.3198 4.5652 93.5928 0.572342 99.392 0.572342C105.191 0.572342 109.463 4.55948 109.463 9.99571C109.463 15.4319 105.191 19.4277 99.392 19.4277C93.5928 19.4277 89.3198 15.4334 89.3198 9.99571ZM104.285 9.99571C104.285 6.86316 102.142 4.81815 99.392 4.81815C96.6424 4.81815 94.4988 6.86316 94.4988 9.99571C94.4988 13.1283 96.6424 15.1733 99.392 15.1733C102.142 15.1733 104.285 13.1283 104.285 9.99571Z" fill="white"/>
</svg>
