<svg width="41" height="13" viewBox="0 0 41 13" fill="none" xmlns="http://www.w3.org/2000/svg">
<path d="M7.33594 8.14844H10.0703C10.0339 8.9401 9.82031 9.63802 9.42969 10.2422C9.03906 10.8464 8.4974 11.3177 7.80469 11.6562C7.11719 11.9896 6.30469 12.1562 5.36719 12.1562C4.60677 12.1562 3.92708 12.0286 3.32812 11.7734C2.73438 11.5182 2.22917 11.151 1.8125 10.6719C1.40104 10.1927 1.08594 9.61198 0.867188 8.92969C0.653646 8.2474 0.546875 7.47917 0.546875 6.625V6.00781C0.546875 5.15365 0.658854 4.38542 0.882812 3.70312C1.11198 3.01562 1.4349 2.43229 1.85156 1.95312C2.27344 1.46875 2.77865 1.09896 3.36719 0.84375C3.95573 0.588542 4.60938 0.460938 5.32812 0.460938C6.31771 0.460938 7.15365 0.638021 7.83594 0.992188C8.51823 1.34635 9.04688 1.83333 9.42188 2.45312C9.79688 3.06771 10.0182 3.76823 10.0859 4.55469H7.35156C7.34115 4.1276 7.26823 3.77083 7.13281 3.48438C6.9974 3.19271 6.78385 2.97396 6.49219 2.82812C6.20052 2.68229 5.8125 2.60938 5.32812 2.60938C4.98958 2.60938 4.69531 2.67188 4.44531 2.79688C4.19531 2.92188 3.98698 3.11979 3.82031 3.39062C3.65365 3.66146 3.52865 4.01302 3.44531 4.44531C3.36719 4.8724 3.32812 5.38802 3.32812 5.99219V6.625C3.32812 7.22917 3.36458 7.74479 3.4375 8.17188C3.51042 8.59896 3.6276 8.94792 3.78906 9.21875C3.95052 9.48958 4.15885 9.6901 4.41406 9.82031C4.67448 9.94531 4.99219 10.0078 5.36719 10.0078C5.78385 10.0078 6.13542 9.94271 6.42188 9.8125C6.70833 9.67708 6.92969 9.47396 7.08594 9.20312C7.24219 8.92708 7.32552 8.57552 7.33594 8.14844ZM20.8672 0.625V12H18.1328L14.1094 4.92188V12H11.3672V0.625H14.1094L18.1328 7.70312V0.625H20.8672ZM25.3438 0.625V12H22.6016V0.625H25.3438ZM29.7656 5.35938V7.46875H24.5625V5.35938H29.7656ZM30.2109 0.625V2.74219H24.5625V0.625H30.2109ZM37.0156 0.625V12H34.2734V0.625H37.0156ZM40.4375 0.625V2.74219H30.9297V0.625H40.4375Z" fill="white"/>
</svg>
