<svg width="25" height="24" viewBox="0 0 25 24" fill="none" xmlns="http://www.w3.org/2000/svg">
<path d="M15.32 4.26001C15.1214 4.6157 14.9444 4.98303 14.79 5.36001C13.2727 5.12006 11.7272 5.12006 10.21 5.36001C10.0556 4.98303 9.87858 4.6157 9.67998 4.26001C8.25077 4.50421 6.86138 4.94155 5.54998 5.56001C3.20492 8.9443 2.14142 13.053 2.54998 17.15C4.07822 18.2989 5.79344 19.1751 7.61998 19.74C8.03589 19.1906 8.40708 18.6087 8.72998 18C8.13405 17.7803 7.56127 17.5023 7.01998 17.17C7.16844 17.0712 7.30888 16.9609 7.43998 16.84C9.01844 17.6003 10.7479 17.9952 12.5 17.9952C14.252 17.9952 15.9815 17.6003 17.56 16.84C17.7 16.96 17.84 17.07 17.98 17.17C17.4357 17.4997 16.8635 17.7807 16.27 18.01C16.5795 18.6325 16.9408 19.228 17.35 19.79C19.1742 19.227 20.8865 18.3506 22.41 17.2C22.8284 13.1022 21.764 8.99019 19.41 5.61001C18.1133 4.97875 16.7377 4.52468 15.32 4.26001ZM9.17998 14.81C8.67956 14.7741 8.21252 14.5457 7.8769 14.1728C7.54128 13.7999 7.36317 13.3114 7.37998 12.81C7.36064 12.3079 7.53786 11.8181 7.87399 11.4446C8.21012 11.0711 8.67864 10.8435 9.17998 10.81C9.68132 10.8435 10.1498 11.0711 10.486 11.4446C10.8221 11.8181 10.9993 12.3079 10.98 12.81C10.9993 13.3121 10.8221 13.8019 10.486 14.1754C10.1498 14.5489 9.68132 14.7765 9.17998 14.81ZM15.82 14.81C15.3196 14.7741 14.8525 14.5457 14.5169 14.1728C14.1813 13.7999 14.0032 13.3114 14.02 12.81C14.0006 12.3079 14.1779 11.8181 14.514 11.4446C14.8501 11.0711 15.3186 10.8435 15.82 10.81C16.3222 10.841 16.7923 11.0679 17.1289 11.442C17.4656 11.816 17.6419 12.3073 17.62 12.81C17.6419 13.3128 17.4656 13.804 17.1289 14.1781C16.7923 14.5521 16.3222 14.779 15.82 14.81Z" fill="white"/>
</svg>
