<svg width="25" height="24" viewBox="0 0 25 24" fill="none" xmlns="http://www.w3.org/2000/svg">
<path d="M12.5 1.5C9.65056 1.5 9.29225 1.51313 8.17269 1.563C7.05312 1.6155 6.29056 1.79137 5.6225 2.05125C4.92175 2.31483 4.28702 2.72827 3.76269 3.26269C3.2286 3.78729 2.8152 4.42194 2.55125 5.1225C2.29137 5.78925 2.11419 6.55312 2.063 7.66875C2.01313 8.79094 2 9.14794 2 12.0013C2 14.8521 2.01313 15.2091 2.063 16.3286C2.1155 17.4469 2.29137 18.2094 2.55125 18.8775C2.82031 19.5679 3.17863 20.1532 3.76269 20.7373C4.34544 21.3214 4.93081 21.681 5.62119 21.9487C6.29056 22.2086 7.05181 22.3858 8.17006 22.437C9.29094 22.4869 9.64794 22.5 12.5 22.5C15.3521 22.5 15.7078 22.4869 16.8286 22.437C17.9456 22.3845 18.7108 22.2086 19.3788 21.9487C20.0791 21.685 20.7134 21.2716 21.2373 20.7373C21.8214 20.1532 22.1797 19.5679 22.4487 18.8775C22.7073 18.2094 22.8845 17.4469 22.937 16.3286C22.9869 15.2091 23 14.8521 23 12C23 9.14794 22.9869 8.79094 22.937 7.67006C22.8845 6.55313 22.7073 5.78925 22.4487 5.1225C22.1848 4.42192 21.7714 3.78726 21.2373 3.26269C20.7131 2.72807 20.0784 2.3146 19.3775 2.05125C18.7081 1.79137 17.9443 1.61419 16.8273 1.563C15.7064 1.51313 15.3507 1.5 12.4974 1.5H12.5013H12.5ZM11.5589 3.39263H12.5013C15.3048 3.39263 15.6369 3.40181 16.7433 3.453C17.7671 3.49894 18.3236 3.67088 18.6937 3.81394C19.1833 4.00425 19.5337 4.23263 19.9012 4.60013C20.2687 4.96762 20.4958 5.31675 20.6861 5.80763C20.8304 6.17644 21.0011 6.73294 21.047 7.75669C21.0982 8.86313 21.1087 9.19519 21.1087 11.9974C21.1087 14.7996 21.0982 15.1329 21.047 16.2394C21.0011 17.2631 20.8291 17.8183 20.6861 18.1884C20.5177 18.6443 20.249 19.0566 19.8999 19.3946C19.5324 19.7621 19.1833 19.9892 18.6924 20.1795C18.3249 20.3239 17.7684 20.4945 16.7433 20.5417C15.6369 20.5916 15.3048 20.6034 12.5013 20.6034C9.69781 20.6034 9.36444 20.5916 8.258 20.5417C7.23425 20.4945 6.67906 20.3239 6.30894 20.1795C5.85284 20.0114 5.44023 19.7432 5.10144 19.3946C4.75199 19.056 4.48289 18.6434 4.31394 18.1871C4.17088 17.8183 3.99894 17.2618 3.953 16.2381C3.90313 15.1316 3.89263 14.7996 3.89263 11.9948C3.89263 9.19125 3.90313 8.8605 3.953 7.75406C4.00025 6.73031 4.17088 6.17381 4.31525 5.80369C4.50556 5.31413 4.73394 4.96369 5.10144 4.59619C5.46894 4.22869 5.81806 4.00163 6.30894 3.81131C6.67906 3.66694 7.23425 3.49631 8.258 3.44906C9.22662 3.40444 9.602 3.39131 11.5589 3.39V3.39263ZM18.1057 5.13562C17.9402 5.13562 17.7764 5.16822 17.6235 5.23154C17.4706 5.29486 17.3317 5.38767 17.2147 5.50467C17.0977 5.62167 17.0049 5.76057 16.9416 5.91344C16.8783 6.06631 16.8457 6.23016 16.8457 6.39563C16.8457 6.56109 16.8783 6.72494 16.9416 6.87781C17.0049 7.03068 17.0977 7.16958 17.2147 7.28658C17.3317 7.40358 17.4706 7.49639 17.6235 7.55971C17.7764 7.62303 17.9402 7.65562 18.1057 7.65562C18.4399 7.65562 18.7603 7.52288 18.9966 7.28658C19.2329 7.05028 19.3657 6.7298 19.3657 6.39563C19.3657 6.06145 19.2329 5.74097 18.9966 5.50467C18.7603 5.26837 18.4399 5.13562 18.1057 5.13562ZM12.5013 6.60825C11.7861 6.59709 11.0758 6.72832 10.4118 6.99431C9.74777 7.2603 9.1433 7.65572 8.63357 8.15756C8.12384 8.65939 7.71904 9.25762 7.44273 9.9174C7.16642 10.5772 7.02412 11.2853 7.02412 12.0007C7.02412 12.716 7.16642 13.4241 7.44273 14.0839C7.71904 14.7437 8.12384 15.3419 8.63357 15.8438C9.1433 16.3456 9.74777 16.741 10.4118 17.007C11.0758 17.273 11.7861 17.4042 12.5013 17.3931C13.9169 17.371 15.267 16.7931 16.2603 15.7843C17.2535 14.7754 17.8102 13.4164 17.8102 12.0007C17.8102 10.5849 17.2535 9.22592 16.2603 8.21705C15.267 7.20818 13.9169 6.63034 12.5013 6.60825ZM12.5013 8.49956C13.4297 8.49956 14.32 8.86836 14.9765 9.52482C15.633 10.1813 16.0017 11.0716 16.0017 12C16.0017 12.9284 15.633 13.8187 14.9765 14.4752C14.32 15.1316 13.4297 15.5004 12.5013 15.5004C11.5729 15.5004 10.6826 15.1316 10.0261 14.4752C9.36967 13.8187 9.00087 12.9284 9.00087 12C9.00087 11.0716 9.36967 10.1813 10.0261 9.52482C10.6826 8.86836 11.5729 8.49956 12.5013 8.49956Z" fill="white"/>
</svg>
