<svg width="65" height="17" viewBox="0 0 65 17" fill="none" xmlns="http://www.w3.org/2000/svg">
<path d="M1.16406 16.4141C0.966146 16.4141 0.789062 16.4036 0.632812 16.3828C0.476562 16.362 0.3125 16.3281 0.140625 16.2812L0.25 14.7891C0.34375 14.8151 0.463542 14.8385 0.609375 14.8594C0.760417 14.8802 0.895833 14.8906 1.01562 14.8906C1.31771 14.8906 1.55469 14.7656 1.72656 14.5156C1.89844 14.2656 1.98438 13.9193 1.98438 13.4766V5.99219L0.742188 5.75781V4.54688H3.95312V13.4766C3.95312 14.4141 3.70573 15.138 3.21094 15.6484C2.72135 16.1589 2.03906 16.4141 1.16406 16.4141ZM1.89062 2.63281V0.8125H3.9375V2.63281H1.89062ZM5.35156 16.25V15.0391L6.49219 14.8047V5.99219L5.25 5.75781V4.54688H8.25781L8.38281 5.54688C8.64323 5.17708 8.96094 4.89323 9.33594 4.69531C9.71094 4.49219 10.1536 4.39062 10.6641 4.39062C11.3516 4.39062 11.9401 4.57812 12.4297 4.95312C12.9193 5.32812 13.2917 5.85156 13.5469 6.52344C13.8073 7.19531 13.9375 7.98177 13.9375 8.88281V9.04688C13.9375 9.86979 13.8073 10.5911 13.5469 11.2109C13.2865 11.8255 12.9115 12.3047 12.4219 12.6484C11.9375 12.9922 11.3516 13.1641 10.6641 13.1641C10.1797 13.1641 9.75521 13.0807 9.39062 12.9141C9.02604 12.7422 8.71354 12.4922 8.45312 12.1641V14.8047L9.65625 15.0391V16.25H5.35156ZM10.0703 11.6484C10.7161 11.6484 11.1927 11.4115 11.5 10.9375C11.8125 10.4583 11.9688 9.82812 11.9688 9.04688V8.88281C11.9688 8.29948 11.8984 7.78906 11.7578 7.35156C11.6224 6.90885 11.4115 6.5651 11.125 6.32031C10.8438 6.07031 10.487 5.94531 10.0547 5.94531C9.6901 5.94531 9.3724 6.02865 9.10156 6.19531C8.83594 6.35677 8.61979 6.58594 8.45312 6.88281V10.7578C8.61979 11.0443 8.83594 11.2656 9.10156 11.4219C9.36719 11.5729 9.6901 11.6484 10.0703 11.6484ZM18.9531 16.4141C18.5365 16.4141 18.0729 16.3568 17.5625 16.2422C17.0573 16.1328 16.612 15.9792 16.2266 15.7812L16.6328 14.3438C16.9661 14.4948 17.3333 14.6172 17.7344 14.7109C18.1354 14.8047 18.5156 14.8516 18.875 14.8516C19.5208 14.8516 19.9922 14.6719 20.2891 14.3125C20.5911 13.9583 20.7422 13.4557 20.7422 12.8047V12.1406C20.4818 12.474 20.1719 12.7292 19.8125 12.9062C19.4531 13.0781 19.0417 13.1641 18.5781 13.1641C17.8906 13.1641 17.2969 12.9922 16.7969 12.6484C16.3021 12.3047 15.9219 11.8229 15.6562 11.2031C15.3958 10.5833 15.2656 9.86458 15.2656 9.04688V8.88281C15.2656 7.98177 15.3958 7.19531 15.6562 6.52344C15.9219 5.85156 16.2995 5.32812 16.7891 4.95312C17.2839 4.57812 17.8724 4.39062 18.5547 4.39062C19.0703 4.39062 19.5182 4.4974 19.8984 4.71094C20.2786 4.91927 20.6016 5.21875 20.8672 5.60938L21.0156 4.54688H22.7109V12.8125C22.7109 13.5469 22.5625 14.1823 22.2656 14.7188C21.9688 15.2604 21.5391 15.6771 20.9766 15.9688C20.4141 16.2656 19.7396 16.4141 18.9531 16.4141ZM19.1094 11.6094C19.4896 11.6094 19.8125 11.5286 20.0781 11.3672C20.349 11.2057 20.5703 10.9714 20.7422 10.6641V6.89844C20.5703 6.60156 20.349 6.36979 20.0781 6.20312C19.8073 6.03125 19.487 5.94531 19.1172 5.94531C18.6849 5.94531 18.3281 6.07031 18.0469 6.32031C17.7708 6.5651 17.5651 6.90885 17.4297 7.35156C17.2995 7.78906 17.2344 8.29948 17.2344 8.88281V9.04688C17.2344 9.82812 17.3828 10.4505 17.6797 10.9141C17.9818 11.3776 18.4583 11.6094 19.1094 11.6094ZM22.4453 6.03125L21.6172 4.54688H23.7266V5.75781L22.4453 6.03125ZM25 13V11.1797H26.9609V13H25ZM31.9922 13.1641C31.388 13.1641 30.8229 13.1068 30.2969 12.9922C29.776 12.8724 29.2526 12.6979 28.7266 12.4688L28.7031 10.2344H30.1172L30.4141 11.4531C30.638 11.5521 30.8672 11.6302 31.1016 11.6875C31.3411 11.7396 31.6068 11.7656 31.8984 11.7656C32.4609 11.7656 32.8568 11.6667 33.0859 11.4688C33.3203 11.2708 33.4375 11.026 33.4375 10.7344C33.4375 10.4531 33.3151 10.2135 33.0703 10.0156C32.8307 9.8125 32.3698 9.63802 31.6875 9.49219C30.6771 9.27344 29.9323 8.95573 29.4531 8.53906C28.9792 8.11719 28.7422 7.57031 28.7422 6.89844C28.7422 6.4349 28.8646 6.01562 29.1094 5.64062C29.3594 5.26562 29.724 4.96615 30.2031 4.74219C30.6875 4.51302 31.2812 4.39844 31.9844 4.39844C32.625 4.39844 33.1927 4.46615 33.6875 4.60156C34.1875 4.73177 34.612 4.90625 34.9609 5.125L35.0078 7.27344H33.6094L33.3672 6.15625C33.2057 6.04167 33.0182 5.95312 32.8047 5.89062C32.5911 5.82812 32.3464 5.79688 32.0703 5.79688C31.638 5.79688 31.2969 5.89323 31.0469 6.08594C30.7969 6.27344 30.6719 6.51042 30.6719 6.79688C30.6719 6.96354 30.7109 7.11458 30.7891 7.25C30.8724 7.38542 31.0286 7.51042 31.2578 7.625C31.4922 7.73438 31.8333 7.84115 32.2812 7.94531C33.3802 8.20052 34.1667 8.53385 34.6406 8.94531C35.1146 9.35677 35.3516 9.90104 35.3516 10.5781C35.3516 11.3333 35.0755 11.9531 34.5234 12.4375C33.9714 12.9219 33.1276 13.1641 31.9922 13.1641ZM39.6797 13.1484C38.9609 13.1484 38.401 12.9479 38 12.5469C37.599 12.1406 37.3984 11.4948 37.3984 10.6094V5.95312H36.1641V4.54688H37.3984V2.49219H39.3594V4.54688H41.0312V5.95312H39.3594V10.6094C39.3594 10.9688 39.4323 11.2318 39.5781 11.3984C39.7292 11.5599 39.9323 11.6406 40.1875 11.6406C40.3333 11.6406 40.4948 11.6276 40.6719 11.6016C40.8542 11.5755 41 11.5495 41.1094 11.5234L41.3125 12.9062C41.0833 12.974 40.8203 13.0312 40.5234 13.0781C40.2318 13.125 39.9505 13.1484 39.6797 13.1484ZM46 13.1641C45.1875 13.1641 44.4896 12.9818 43.9062 12.6172C43.3229 12.2526 42.875 11.7474 42.5625 11.1016C42.25 10.4505 42.0938 9.70312 42.0938 8.85938V8.69531C42.0938 7.85677 42.25 7.11458 42.5625 6.46875C42.875 5.82292 43.3229 5.3151 43.9062 4.94531C44.4896 4.57552 45.1823 4.39062 45.9844 4.39062C46.7969 4.39062 47.4948 4.57552 48.0781 4.94531C48.6615 5.3099 49.1094 5.8151 49.4219 6.46094C49.7344 7.10677 49.8906 7.85156 49.8906 8.69531V8.85938C49.8906 9.70312 49.7344 10.4505 49.4219 11.1016C49.1094 11.7474 48.6615 12.2526 48.0781 12.6172C47.5 12.9818 46.8073 13.1641 46 13.1641ZM46 11.6484C46.4375 11.6484 46.7969 11.5312 47.0781 11.2969C47.3646 11.0573 47.5781 10.7292 47.7188 10.3125C47.8594 9.89062 47.9297 9.40625 47.9297 8.85938V8.69531C47.9297 8.15365 47.8594 7.67448 47.7188 7.25781C47.5781 6.84115 47.3646 6.51302 47.0781 6.27344C46.7917 6.03385 46.4271 5.91406 45.9844 5.91406C45.5521 5.91406 45.1927 6.03385 44.9062 6.27344C44.6198 6.51302 44.4062 6.84115 44.2656 7.25781C44.1302 7.67448 44.0625 8.15365 44.0625 8.69531V8.85938C44.0625 9.40625 44.1302 9.89062 44.2656 10.3125C44.4062 10.7292 44.6198 11.0573 44.9062 11.2969C45.1979 11.5312 45.5625 11.6484 46 11.6484ZM51.0703 13V11.7969L52.2422 11.5625V5.99219L51.0078 5.75781V4.54688H54.0547L54.1562 5.60938L54.1719 5.78125C54.3958 5.33333 54.6693 4.98958 54.9922 4.75C55.3203 4.51042 55.7031 4.39062 56.1406 4.39062C56.2865 4.39062 56.4401 4.40365 56.6016 4.42969C56.7682 4.45573 56.9036 4.48438 57.0078 4.51562L56.7812 6.33594L55.6797 6.27344C55.3203 6.2526 55.0234 6.32292 54.7891 6.48438C54.5599 6.64583 54.3672 6.86979 54.2109 7.15625V11.5625L55.3828 11.7969V13H51.0703ZM61.6172 13.1641C60.8203 13.1641 60.125 12.987 59.5312 12.6328C58.9427 12.2734 58.4844 11.7786 58.1562 11.1484C57.8333 10.5182 57.6719 9.79688 57.6719 8.98438V8.65625C57.6719 7.83333 57.8307 7.10156 58.1484 6.46094C58.4714 5.8151 58.9141 5.3099 59.4766 4.94531C60.0391 4.57552 60.6797 4.39062 61.3984 4.39062C62.1641 4.39062 62.8047 4.54427 63.3203 4.85156C63.8411 5.15885 64.2344 5.59635 64.5 6.16406C64.7656 6.72656 64.8984 7.40365 64.8984 8.19531V9.32031H59.7109L59.6953 9.35938C59.7161 9.80208 59.8073 10.1953 59.9688 10.5391C60.1354 10.8828 60.3698 11.1536 60.6719 11.3516C60.9792 11.5495 61.3516 11.6484 61.7891 11.6484C62.2474 11.6484 62.6641 11.5859 63.0391 11.4609C63.4141 11.3359 63.7604 11.1589 64.0781 10.9297L64.6953 12.1641C64.362 12.4453 63.9375 12.6823 63.4219 12.875C62.9062 13.0677 62.3047 13.1641 61.6172 13.1641ZM59.7422 7.9375H63.0156V7.73438C63.0156 7.36458 62.9583 7.04167 62.8438 6.76562C62.7344 6.48438 62.5599 6.26562 62.3203 6.10938C62.0859 5.95312 61.7865 5.875 61.4219 5.875C61.1042 5.875 60.8255 5.96354 60.5859 6.14062C60.3464 6.31771 60.1536 6.5599 60.0078 6.86719C59.8672 7.16927 59.7708 7.51302 59.7188 7.89844L59.7422 7.9375Z" fill="white"/>
</svg>
