<svg width="25" height="24" viewBox="0 0 25 24" fill="none" xmlns="http://www.w3.org/2000/svg">
<g clip-path="url(#clip0_546_878)">
<path d="M24.143 4.93699C23.308 5.30699 22.411 5.55699 21.468 5.66999C22.441 5.08778 23.169 4.17145 23.516 3.09199C22.6019 3.63497 21.6014 4.01718 20.558 4.22199C19.8564 3.47285 18.9271 2.97631 17.9143 2.80946C16.9016 2.64261 15.8621 2.81478 14.9573 3.29924C14.0524 3.7837 13.3328 4.55335 12.9102 5.48869C12.4875 6.42403 12.3855 7.47274 12.62 8.47199C10.7677 8.37898 8.95564 7.89753 7.30144 7.05889C5.64723 6.22025 4.18785 5.04315 3.01801 3.60399C2.61801 4.29399 2.38801 5.09399 2.38801 5.94599C2.38757 6.71298 2.57644 7.46823 2.93789 8.14472C3.29934 8.82121 3.82217 9.39802 4.46001 9.82399C3.72029 9.80045 2.99688 9.60057 2.35001 9.24099V9.30098C2.34994 10.3767 2.72204 11.4194 3.40319 12.252C4.08435 13.0846 5.03258 13.6559 6.08701 13.869C5.4008 14.0547 4.68135 14.0821 3.98301 13.949C4.28051 14.8746 4.86001 15.684 5.64038 16.2639C6.42075 16.8438 7.36293 17.1652 8.33501 17.183C6.68485 18.4784 4.6469 19.1811 2.54901 19.178C2.17739 19.1781 1.80609 19.1564 1.43701 19.113C3.56649 20.4822 6.04535 21.2088 8.57701 21.206C17.147 21.206 21.832 14.108 21.832 7.95199C21.832 7.75199 21.827 7.54998 21.818 7.34999C22.7293 6.69096 23.5159 5.87488 24.141 4.93999L24.143 4.93699Z" fill="white"/>
</g>
<defs>
<clipPath id="clip0_546_878">
<rect width="24" height="24" fill="white" transform="translate(0.5)"/>
</clipPath>
</defs>
</svg>
